HIERARCHY
ROOT ui
{
	 OFFSET 0 0 0
	 CHANNELS 3 XPosition YPosition Z Position
	 EndSite
	 {
	 OFFSET 0 -1 0
	 }
}
ROOT li
{
	 OFFSET 0 0 0
	 CHANNELS 3 XPosition YPosition Z Position
	 EndSite
	 {
	 OFFSET 0 -1 0
	 }
}
ROOT ul
{
	 OFFSET 0 0 0
	 CHANNELS 3 XPosition YPosition Z Position
	 EndSite
	 {
	 OFFSET 0 -1 0
	 }
}
ROOT ll
{
	 OFFSET 0 0 0
	 CHANNELS 3 XPosition YPosition Z Position
	 EndSite
	 {
	 OFFSET 0 -1 0
	 }
}
ROOT tt
{
	 OFFSET 0 0 0
	 CHANNELS 3 XPosition YPosition Z Position
	 EndSite
	 {
	 OFFSET 0 -1 0
	 }
}
ROOT tb
{
	 OFFSET 0 0 0
	 CHANNELS 3 XPosition YPosition Z Position
	 EndSite
	 {
	 OFFSET 0 -1 0
	 }
}
ROOT td
{
	 OFFSET 0 0 0
	 CHANNELS 3 XPosition YPosition Z Position
	 EndSite
	 {
	 OFFSET 0 -1 0
	 }
}
ROOT v
{
	 OFFSET 0 0 0
	 CHANNELS 3 XPosition YPosition Z Position
	 EndSite
	 {
	 OFFSET 0 -1 0
	 }
}
ROOT bn
{
	 OFFSET 0 0 0
	 CHANNELS 3 XPosition YPosition Z Position
	 EndSite
	 {
	 OFFSET 0 -1 0
	 }
}
MOTION
Frames: 32
Frame Time: 0.002
0.0054775581359863285	0.0013859150409698485	0		0.4741522827148438	-2.3051201171875	0		-1.0638585205078126	0.24062057495117187	0		-0.7149357299804687	-2.39353857421875	0		2.076948486328125	-0.494316650390625	0		3.49467333984375	-0.7015301513671875	0		4.70926806640625	-0.48139468383789064	0		5.8952314453125	0.31109765625	0		-0.228650634765625	5.94244921875	0		
-0.017030427932739258	0.005166359901428223	0		0.45169271850585935	-2.2983369140625	0		-1.0702662353515624	0.2532111358642578	0		-0.7124534301757812	-2.3920478515625	0		2.097337890625	-0.5000139770507812	0		3.48589453125	-0.7218865966796875	0		4.697716796875	-0.481710693359375	0		5.89190966796875	0.2948566284179687	0		-0.18003985595703126	5.95941650390625	0		
0.0063235340118408204	4.321489930152893E-4	0		0.5020265502929687	-2.308370849609375	0		-1.0789600830078125	0.24482444763183595	0		-0.7140348510742187	-2.3945087890625	0		2.05962451171875	-0.5110166320800781	0		3.515454345703125	-0.709631591796875	0		4.68406982421875	-0.48694381713867185	0		5.90004296875	0.2939952392578125	0		-0.16079693603515624	5.95372509765625	0		
-0.019308477401733398	0.001268651008605957	0		0.4395968017578125	-2.2951005859375	0		-1.090497314453125	0.2544713134765625	0		-0.6746280517578125	-2.396431396484375	0		2.0577548828125	-0.5323953857421875	0		3.4866826171875	-0.7226637573242187	0		4.68443798828125	-0.487274658203125	0		5.9002978515625	0.2934823913574219	0		-0.19663719177246095	5.9506708984375	0		
0.003952359914779663	-0.0034375131130218507	0		0.4758641357421875	-2.3069365234375	0		-1.0901990966796875	0.2539852294921875	0		-0.74816845703125	-2.39106298828125	0		2.0071312255859377	-0.5281845703125	0		3.484176513671875	-0.7089439086914062	0		4.67664013671875	-0.4984512939453125	0		5.8926748046875	0.2933162841796875	0		-0.19655410766601564	5.95021875	0		
-0.01570598793029785	0.00335955810546875	0		0.45534884643554685	-2.29710595703125	0		-1.0758154296875	0.26534625244140625	0		-0.7037516479492187	-2.38802392578125	0		2.0173829345703127	-0.5316307373046875	0		3.5112890625	-0.7255111694335937	0		4.6809921875	-0.49270379638671874	0		5.9007099609375	0.2928459167480469	0		-0.2286631164550781	5.942142578125	0		
0.01150897216796875	0.0026451420783996584	0		0.4757832946777344	-2.2897158203125	0		-1.0756134033203124	0.26487567138671875	0		-0.73834228515625	-2.383080810546875	0		1.9956422119140624	-0.5306805419921875	0		3.495906982421875	-0.6935464477539063	0		4.6692373046875	-0.49271630859375	0		5.90800048828125	0.29251876831054685	0		-0.19669203186035156	5.94935986328125	0		
-0.01531371021270752	0.0025572009086608886	0		0.4450739440917969	-2.29272900390625	0		-1.091397705078125	0.2695950012207031	0		-0.7060942993164062	-2.390875244140625	0		2.0097393798828125	-0.5410989990234375	0		3.4459404296875	-0.710153564453125	0		4.6832763671875	-0.5079635009765625	0		5.89540478515625	0.3170680236816406	0		-0.21200746154785155	5.939125	0		
0.01182308006286621	0.001886970043182373	0		0.46547320556640626	-2.28428955078125	0		-1.091278076171875	0.26914846801757814	0		-0.7177194213867187	-2.385161865234375	0		1.9848734130859376	-0.5450487060546875	0		3.47023876953125	-0.700546630859375	0		4.6696181640625	-0.49284762573242186	0		5.8955078125	0.3171536865234375	0		-0.19334503173828124	5.93352978515625	0		
-0.01810245704650879	-0.0011293610334396362	0		0.4387764282226562	-2.282304931640625	0		-1.0911927490234374	0.26871734619140625	0		-0.70752099609375	-2.39367431640625	0		1.9850206298828126	-0.5452459106445312	0		3.466343017578125	-0.7055864868164062	0		4.675662109375	-0.5019063110351563	0		5.895587890625	0.3173316345214844	0		-0.2628074340820313	5.92292822265625	0		
0.01200675392150879	0.0012139090299606323	0		0.4499709167480469	-2.288716552734375	0		-1.0979825439453126	0.2823789978027344	0		-0.7771486206054687	-2.3842919921875	0		1.985142333984375	-0.5454137573242187	0		3.453894287109375	-0.6674957275390625	0		4.6829111328125	-0.48993603515625	0		5.89928515625	0.333062255859375	0		-0.2480840606689453	5.93341552734375	0		
-0.014935757637023926	0.0012027280330657959	0		0.4703021240234375	-2.281202392578125	0		-1.0589521484375	0.2815590515136719	0		-0.7069970703125	-2.394421630859375	0		1.978330810546875	-0.537479248046875	0		3.4609072265625	-0.6765907592773438	0		4.68910498046875	-0.48091949462890626	0		5.90646142578125	0.3331961669921875	0		-0.21544520568847655	5.93973095703125	0		
0.01210273265838623	6.261569857597351E-4	0		0.4415362243652344	-2.281134521484375	0		-1.0979334716796876	0.28160577392578123	0		-0.7186897583007813	-2.388636474609375	0		1.9684384765625	-0.5354891967773437	0		3.4842294921875	-0.6558324584960937	0		4.6741220703125	-0.48664657592773436	0		5.9016181640625	0.3596504211425781	0		-0.19696067810058593	5.93422412109375	0		
0.0080907621383667	-0.003593385934829712	0		0.46671533203125	-2.2856279296875	0		-1.0258880615234376	0.28447933959960936	0		-0.7146179809570312	-2.404002685546875	0		1.9526328125	-0.524416015625	0		3.4633916015625	-0.6485775756835938	0		4.68519287109375	-0.4866329650878906	0		5.906544921875	0.33917410278320315	0		-0.24857807922363281	5.92048974609375	0		
0.012159580230712891	1.2152200192213058E-4	0		0.414009033203125	-2.278270263671875	0		-1.092881591796875	0.28486175537109376	0		-0.7164127807617188	-2.406283935546875	0		1.9555751953125	-0.53652783203125	0		3.447610595703125	-0.635363525390625	0		4.6893232421875	-0.48052908325195315	0		5.90293408203125	0.3241319885253906	0		-0.29723257446289064	5.902736328125	0		
0.012184529304504395	-1.001499965786934E-4	0		0.44623675537109375	-2.276796630859375	0		-1.0448084716796875	0.2910452880859375	0		-0.7161940307617187	-2.406564208984375	0		1.9527698974609375	-0.5245620727539062	0		3.4896318359375	-0.6407504272460938	0		4.6965126953125	-0.46844839477539063	0		5.90951025390625	0.35554904174804686	0		-0.266463623046875	5.923162109375	0		
-0.007717095851898194	0.006907336235046387	0		0.44643572998046877	-2.27696435546875	0		-1.0847105712890626	0.3001805419921875	0		-0.7200266723632812	-2.410779296875	0		1.938814208984375	-0.5264677734375	0		3.45728173828125	-0.5853425903320313	0		4.69676123046875	-0.45029080200195315	0		5.905341796875	0.376857421875	0		-0.2338335266113281	5.92859423828125	0		
0.012230672836303712	-4.823090136051178E-4	0		0.4695482482910156	-2.284352294921875	0		-1.0547947998046876	0.291609375	0		-0.7309442138671876	-2.4218984375	0		1.9317811279296875	-0.5354364624023438	0		3.433357666015625	-0.5840257568359375	0		4.68094091796875	-0.43796807861328124	0		5.9017275390625	0.3618060302734375	0		-0.2644455871582031	5.9087080078125	0		
-0.014749967575073242	-3.6552700400352476E-4	0		0.44274090576171876	-2.282205078125	0		-1.08875341796875	0.295726806640625	0		-0.69985888671875	-2.431428955078125	0		1.9279588623046875	-0.52342919921875	0		3.455547607421875	-0.5711863403320312	0		4.69297705078125	-0.43894137573242187	0		5.898103515625	0.3450019836425781	0		-0.26482266235351565	5.90852783203125	0		
0.012260275840759277	-7.87617027759552E-4	0		0.46986944580078127	-2.284599365234375	0		-1.088759765625	0.2955162048339844	0		-0.7427380981445313	-2.4351748046875	0		1.901962646484375	-0.5271895751953125	0		3.451655517578125	-0.565079833984375	0		4.7021689453125	-0.4238933715820313	0		5.90175390625	0.3625870971679688	0		-0.26517037963867185	5.9083671875	0		
-0.014734821319580078	-6.390759944915771E-4	0		0.41505075073242187	-2.279140625	0		-1.084731689453125	0.29928863525390625	0		-0.7466532592773437	-2.4403017578125	0		1.9140145263671875	-0.5253363037109375	0		3.4581279296875	-0.5220834350585938	0		4.70727685546875	-0.41581704711914064	0		5.90539111328125	0.3784052734375	0		-0.28543557739257813	5.91342919921875	0		
0.015287718772888183	0.001943850040435791	0		0.47211895751953126	-2.28281103515625	0		-1.0507032470703126	0.3037801513671875	0		-0.7505844116210938	-2.444407958984375	0		1.9010133056640626	-0.5272252197265626	0		3.455095703125	-0.5270005493164063	0		4.7184619140625	-0.3988182373046875	0		5.9053876953125	0.37869940185546874	0		-0.25166304016113283	5.91895849609375	0		
-0.014758955955505372	-8.490779995918274E-4	0		0.44117453002929685	-2.284575439453125	0		-1.0557735595703126	0.2996915588378906	0		-0.6876686401367188	-2.46117138671875	0		1.9399541015625	-0.5336395874023437	0		3.479381103515625	-0.49920236206054686	0		4.72455078125	-0.38978616333007815	0		5.912501953125	0.37704135131835936	0		-0.2519194488525391	5.9188515625	0		
0.012208984375	-0.0012051600217819214	0		0.4661678161621094	-2.289896240234375	0		-1.055814208984375	0.2995730895996094	0		-0.730656005859375	-2.464843994140625	0		1.9200025634765625	-0.5274576416015625	0		3.42855078125	-0.4806575927734375	0		4.72370458984375	-0.3727039794921875	0		5.91248046875	0.377238037109375	0		-0.23417730712890625	5.915578125	0		
-0.014834646224975587	-0.0010045390129089355	0		0.44610235595703124	-2.297753662109375	0		-1.016868896484375	0.2990827941894531	0		-0.6620933227539062	-2.510625244140625	0		1.908841064453125	-0.5403680419921875	0		3.4496376953125	-0.4688520812988281	0		4.718759765625	-0.3636036071777344	0		5.90532568359375	0.3792841796875	0		-0.3024818115234375	5.90518505859375	0		
0.01210356330871582	-0.0013352789878845214	0		0.4570230712890625	-2.303915283203125	0		-1.0508929443359376	0.30334561157226564	0		-0.6901868896484376	-2.51841552734375	0		1.8928814697265626	-0.5312327270507813	0		3.449585693359375	-0.4688487243652344	0		4.7296953125	-0.36468743896484374	0		5.90947607421875	0.358505615234375	0		-0.2515220947265625	5.91760791015625	0		
-0.007902016162872314	0.005816207885742187	0		0.4770500183105469	-2.296159912109375	0		-1.0079349975585938	0.3068544921875	0		-0.664368408203125	-2.531731689453125	0		1.897739990234375	-0.53831103515625	0		3.443895263671875	-0.430802490234375	0		4.72388330078125	-0.33862698364257815	0		5.905228515625	0.3793939514160156	0		-0.2526518249511719	5.91856640625	0		
0.011932779312133789	-0.001422631025314331	0		0.4798125305175781	-2.3112265625	0		-1.0239790649414062	0.31197271728515624	0		-0.66768505859375	-2.5547412109375	0		1.88667822265625	-0.5352339477539062	0		3.421813720703125	-0.42961041259765625	0		4.74086962890625	-0.3308221130371094	0		5.91228662109375	0.37745492553710935	0		-0.23578477478027343	5.9163564453125	0		
-0.015178473472595214	-0.0011820050477981568	0		0.477669189453125	-2.31323876953125	0		-1.028130126953125	0.30798782348632814	0		-0.6459810791015625	-2.57198779296875	0		1.9153712158203124	-0.5545625	0		3.451777587890625	-0.42195748901367186	0		4.7289365234375	-0.31275479125976563	0		5.9050810546875	0.37925836181640626	0		-0.26893829345703124	5.90965869140625	0		
0.011687675476074218	-0.0014752919673919678	0		0.44850912475585936	-2.31297607421875	0		-1.0672567138671876	0.30836968994140623	0		-0.6833246459960938	-2.5896298828125	0		1.899182373046875	-0.5594481811523437	0		3.447690185546875	-0.4169833984375	0		4.73978955078125	-0.3139469909667969	0		5.90917919921875	0.35822723388671873	0		-0.26998651123046874	5.91064990234375	0		
-0.015464346885681152	-0.0012200289964675903	0		0.48419564819335936	-2.324363037109375	0		-1.02840576171875	0.30798336791992187	0		-0.6697835083007813	-2.614771240234375	0		1.8919273681640625	-0.5684324951171875	0		3.421891845703125	-0.3808108215332031	0		4.7479208984375	-0.2851426696777344	0		5.90487548828125	0.3788506164550781	0		-0.2889768371582031	5.914830078125	0		
0.011359457969665527	-0.001502277970314026	0		0.452935546875	-2.326074462890625	0		-1.03452099609375	0.3130628051757812	0		-0.64922607421875	-2.633973388671875	0		1.8997156982421874	-0.5705777587890625	0		3.438573974609375	-0.3940902099609375	0		4.76381787109375	-0.27745111083984375	0		5.90475	0.3785375061035156	0		-0.2398027801513672	5.9323330078125	0		
